<?xml version="1.0" encoding="UTF-8"?>
<!DOCTYPE svg PUBLIC "-//W3C//DTD SVG 1.1//EN" "http://www.w3.org/Graphics/SVG/1.1/DTD/svg11.dtd">
<svg xmlns="http://www.w3.org/2000/svg" version="1.1" width="1080px" height="1080px" style="shape-rendering:geometricPrecision; text-rendering:geometricPrecision; image-rendering:optimizeQuality; fill-rule:evenodd; clip-rule:evenodd" xmlns:xlink="http://www.w3.org/1999/xlink">
<g><path style="opacity:1" fill="#fefefe" d="M -0.5,-0.5 C 359.5,-0.5 719.5,-0.5 1079.5,-0.5C 1079.5,359.5 1079.5,719.5 1079.5,1079.5C 719.5,1079.5 359.5,1079.5 -0.5,1079.5C -0.5,719.5 -0.5,359.5 -0.5,-0.5 Z"/></g>
<g><path style="opacity:1" fill="#050505" d="M 539.5,233.5 C 553.7,230.848 565.866,234.514 576,244.5C 581.803,252.708 583.969,261.708 582.5,271.5C 566.163,272.473 549.83,272.64 533.5,272C 538.492,283.491 547.158,287.491 559.5,284C 562.698,283.152 565.531,281.652 568,279.5C 571.727,282.724 574.894,286.391 577.5,290.5C 570.47,297.345 561.97,300.345 552,299.5C 522.49,297.664 510.824,282.331 517,253.5C 521.889,243.771 529.389,237.104 539.5,233.5 Z"/></g>
<g><path style="opacity:1" fill="#030303" d="M 469.5,240.5 C 494.271,238.769 507.938,250.269 510.5,275C 507.752,296.748 495.419,307.414 473.5,307C 470.804,306.235 468.304,305.068 466,303.5C 467.833,312.835 469.999,322.169 472.5,331.5C 472.291,332.086 471.957,332.586 471.5,333C 465.906,334.273 460.406,335.773 455,337.5C 447.489,309.153 439.989,280.819 432.5,252.5C 438.197,249.908 444.197,248.241 450.5,247.5C 450.181,249.75 450.681,251.75 452,253.5C 456.345,247.086 462.178,242.753 469.5,240.5 Z"/></g>
<g><path style="opacity:1" fill="#050505" d="M 601.5,240.5 C 606.879,241.344 612.212,242.511 617.5,244C 618.134,247.052 618.134,249.886 617.5,252.5C 619.336,251.081 621.336,249.914 623.5,249C 629.157,248.501 634.824,248.334 640.5,248.5C 639.796,253.982 638.463,259.316 636.5,264.5C 636,264.833 635.5,265.167 635,265.5C 626.702,261.826 619.702,263.493 614,270.5C 609.407,282.54 605.907,294.873 603.5,307.5C 597.809,306.16 592.142,304.66 586.5,303C 585.919,302.107 585.585,301.107 585.5,300C 591.026,280.2 596.359,260.367 601.5,240.5 Z"/></g>
<g><path style="opacity:1" fill="#f2f2f2" d="M 543.5,247.5 C 552.14,246.016 558.974,248.682 564,255.5C 565.128,257.345 565.628,259.345 565.5,261.5C 554.76,261.86 544.093,261.194 533.5,259.5C 535.067,253.941 538.4,249.941 543.5,247.5 Z"/></g>
<g><path style="opacity:1" fill="#f9f9f9" d="M 469.5,256.5 C 485.061,256.23 492.228,263.897 491,279.5C 489.637,285.866 485.804,290.032 479.5,292C 467.817,293.997 460.65,289.164 458,277.5C 456.637,267.554 460.47,260.554 469.5,256.5 Z"/></g>
<g><path style="opacity:1" fill="#050505" d="M 397.5,270.5 C 417.698,269.684 430.531,279.018 436,298.5C 436.651,319.53 426.818,333.03 406.5,339C 385.439,342.231 371.939,333.731 366,313.5C 363.737,297.858 369.237,285.691 382.5,277C 387.367,274.226 392.367,272.059 397.5,270.5 Z"/></g>
<g><path style="opacity:1" fill="#fbfbfb" d="M 394.5,287.5 C 405.736,286.247 413.236,290.914 417,301.5C 418.731,316.77 411.897,323.937 396.5,323C 384.476,316.59 380.976,307.09 386,294.5C 388.628,291.79 391.461,289.456 394.5,287.5 Z"/></g>
<g><path style="opacity:1" fill="#040404" d="M 322.5,291.5 C 327.74,295.233 332.574,299.566 337,304.5C 352.667,321.5 368.333,338.5 384,355.5C 384.667,356.167 384.667,356.833 384,357.5C 380.231,362.308 375.731,365.808 370.5,368C 350.667,346.833 330.833,325.667 311,304.5C 310.333,303.833 310.333,303.167 311,302.5C 315.335,299.331 319.168,295.664 322.5,291.5 Z"/></g>
<g><path style="opacity:1" fill="#040404" d="M 763.5,303.5 C 765.017,303.511 766.184,304.177 767,305.5C 775.667,316.167 784.333,326.833 793,337.5C 799.907,349.332 800.24,361.332 794,373.5C 783.752,385.589 771.252,389.089 756.5,384C 753.272,394.076 750.272,404.243 747.5,414.5C 742.427,409.332 738.094,403.666 734.5,397.5C 736.6,389.269 738.933,381.102 741.5,373C 741.375,371.373 740.875,369.873 740,368.5C 736.9,364.644 733.567,360.977 730,357.5C 724.574,362.769 718.74,367.436 712.5,371.5C 707.693,367.721 703.693,363.221 700.5,358C 701.101,356.395 702.101,355.062 703.5,354C 723.756,337.386 743.756,320.553 763.5,303.5 Z"/></g>
<g><path style="opacity:1" fill="#070707" d="M 661.5,311.5 C 672.726,309.821 678.226,314.488 678,325.5C 675.315,332.841 670.148,335.674 662.5,334C 652.291,326.921 651.958,319.421 661.5,311.5 Z"/></g>
<g><path style="opacity:1" fill="#fafafa" d="M 764.5,328.5 C 770.856,334.194 776.022,340.86 780,348.5C 781.875,359.628 777.208,365.962 766,367.5C 762.362,367.597 759.195,366.43 756.5,364C 751.646,358.647 746.979,353.147 742.5,347.5C 749.878,341.115 757.211,334.782 764.5,328.5 Z"/></g>
<g><path style="opacity:1" fill="#060606" d="M 312.5,345.5 C 322.191,344.162 331.191,345.996 339.5,351C 341.122,352.295 342.455,353.795 343.5,355.5C 335.286,368.556 326.452,381.223 317,393.5C 316.383,394.449 316.549,395.282 317.5,396C 329.512,397.342 337.345,392.175 341,380.5C 341.498,377.183 341.665,373.85 341.5,370.5C 346.481,369.668 351.481,369.502 356.5,370C 357.274,390.758 347.941,405.091 328.5,413C 307.098,415.919 293.264,407.086 287,386.5C 285.864,366.76 294.364,353.094 312.5,345.5 Z"/></g>
<g><path style="opacity:1" fill="#f6f6f6" d="M 312.5,361.5 C 315.85,361.335 319.183,361.502 322.5,362C 323.428,362.388 324.095,363.055 324.5,364C 319.062,372.601 313.062,380.768 306.5,388.5C 300.956,382.852 300.122,376.519 304,369.5C 306.729,366.601 309.562,363.934 312.5,361.5 Z"/></g>
<g><path style="opacity:1" fill="#060606" d="M 781.5,396.5 C 805.95,396.446 819.617,408.613 822.5,433C 820.686,448.822 812.186,459.322 797,464.5C 790.139,449.583 783.472,434.583 777,419.5C 771.039,424.106 769.039,430.106 771,437.5C 772.946,445.111 777.446,450.611 784.5,454C 782.478,458.546 780.311,463.046 778,467.5C 766.284,461.766 758.951,452.432 756,439.5C 751.794,417.556 760.294,403.222 781.5,396.5 Z"/></g>
<g><path style="opacity:1" fill="#040404" d="M 268.5,397.5 C 285.776,412.938 302.943,428.605 320,444.5C 318.706,450.557 316.873,456.557 314.5,462.5C 291.2,464.371 267.866,465.705 244.5,466.5C 245.803,460.424 247.803,454.591 250.5,449C 266.178,448.098 281.844,447.098 297.5,446C 285.962,435.294 274.629,424.46 263.5,413.5C 265.177,408.137 266.844,402.804 268.5,397.5 Z"/></g>
<g><path style="opacity:1" fill="#f7f7f7" d="M 787.5,414.5 C 795.974,412.821 802.141,415.821 806,423.5C 809.307,431.663 807.473,438.329 800.5,443.5C 795.384,434.261 791.051,424.595 787.5,414.5 Z"/></g>
<g><path style="opacity:1" fill="#050505" d="M 826.5,468.5 C 827.552,468.351 828.552,468.517 829.5,469C 841.661,484.79 843.494,501.624 835,519.5C 830.029,524.902 823.863,528.069 816.5,529C 803.487,530.585 790.487,532.085 777.5,533.5C 777.093,527.839 776.76,522.172 776.5,516.5C 784.289,516.545 784.956,515.045 778.5,512C 773.093,503.629 771.259,494.463 773,484.5C 778.538,471.154 788.038,467.321 801.5,473C 806.341,477.513 809.508,483.013 811,489.5C 811.901,496.502 812.735,503.502 813.5,510.5C 818.262,510.037 821.762,507.704 824,503.5C 826.171,493.018 823.671,483.851 816.5,476C 820.08,473.723 823.414,471.223 826.5,468.5 Z"/></g>
<g><path style="opacity:1" fill="#050505" d="M 264.5,478.5 C 269.537,478.413 274.537,478.746 279.5,479.5C 278.473,492.993 277.473,506.493 276.5,520C 276.833,522.833 277.167,525.667 277.5,528.5C 284.615,526.548 288.782,521.881 290,514.5C 291.666,507.033 290.166,500.367 285.5,494.5C 289.424,491.621 293.257,488.621 297,485.5C 305.084,494.706 307.751,505.373 305,517.5C 299.269,540.446 284.769,549.946 261.5,546C 243.19,538.223 235.69,524.389 239,504.5C 242.348,490.653 250.848,481.986 264.5,478.5 Z"/></g>
<g><path style="opacity:1" fill="#f7f7f7" d="M 789.5,488.5 C 794.439,487.352 797.939,489.019 800,493.5C 801.128,498.606 801.961,503.773 802.5,509C 802.245,510.326 801.578,511.326 800.5,512C 792.831,513.352 787.997,510.185 786,502.5C 784.608,497.093 785.774,492.426 789.5,488.5 Z"/></g>
<g><path style="opacity:1" fill="#f5f5f5" d="M 262.5,496.5 C 264.167,496.5 265.833,496.5 267.5,496.5C 266.337,506.796 265.67,517.13 265.5,527.5C 255.05,524.959 250.884,518.293 253,507.5C 254.627,502.382 257.793,498.715 262.5,496.5 Z"/></g>
<g><path style="opacity:1" fill="#050505" d="M 799.5,539.5 C 819.483,538.006 832.65,546.673 839,565.5C 841.662,580.102 837.829,592.602 827.5,603C 824.852,605.05 821.852,606.216 818.5,606.5C 817.238,601.717 815.572,597.05 813.5,592.5C 821.766,587.967 825.266,580.967 824,571.5C 821.762,564.93 817.262,560.763 810.5,559C 794.646,557.521 787.479,564.687 789,580.5C 790.318,583.801 792.152,586.801 794.5,589.5C 791.822,594.188 788.656,598.521 785,602.5C 776.165,595.991 771.998,587.158 772.5,576C 773.639,557.845 782.639,545.678 799.5,539.5 Z"/></g>
<g><path style="opacity:1" fill="#040404" d="M 259.5,554.5 C 284.271,552.447 300.771,563.114 309,586.5C 311.932,600.062 315.099,613.562 318.5,627C 317.663,628.587 316.33,629.42 314.5,629.5C 288.549,635.822 262.549,641.822 236.5,647.5C 233.228,634.21 230.062,620.877 227,607.5C 222.619,580.228 233.452,562.562 259.5,554.5 Z"/></g>
<g><path style="opacity:1" fill="#fbfbfb" d="M 261.5,574.5 C 277.253,571.79 288.086,577.79 294,592.5C 295.978,599.411 297.478,606.411 298.5,613.5C 281.842,617.498 265.175,621.498 248.5,625.5C 246.371,618.991 244.538,612.324 243,605.5C 240.999,590.154 247.165,579.821 261.5,574.5 Z"/></g>
<g><path style="opacity:1" fill="#040404" d="M 770.5,635.5 C 769.539,637.265 769.205,639.265 769.5,641.5C 764.833,641.5 760.167,641.5 755.5,641.5C 754.317,627.156 759.984,616.656 772.5,610C 775.833,609.333 779.167,609.333 782.5,610C 792.774,613.813 803.108,617.313 813.5,620.5C 814.111,617.279 815.278,614.279 817,611.5C 820.659,613.387 824.492,614.887 828.5,616C 829.022,616.561 829.355,617.228 829.5,618C 828.402,620.46 827.402,622.96 826.5,625.5C 831.425,627.756 836.425,629.922 841.5,632C 839.002,637.327 837.002,642.827 835.5,648.5C 830.12,647.198 824.786,646.032 819.5,645C 818.087,649.929 815.921,654.429 813,658.5C 809.539,657.068 806.039,655.735 802.5,654.5C 802.247,649.064 803.58,643.897 806.5,639C 796.242,634.023 785.576,630.69 774.5,629C 772.266,630.638 770.933,632.805 770.5,635.5 Z"/></g>
<g><path style="opacity:1" fill="#7d7d7d" d="M 770.5,635.5 C 770.5,637.833 770.5,640.167 770.5,642.5C 765.305,642.821 760.305,642.487 755.5,641.5C 760.167,641.5 764.833,641.5 769.5,641.5C 769.205,639.265 769.539,637.265 770.5,635.5 Z"/></g>
<g><path style="opacity:1" fill="#060606" d="M 774.5,655.5 C 778.423,656.795 782.09,658.628 785.5,661C 786.357,661.689 787.023,662.522 787.5,663.5C 781.906,673.031 776.072,682.364 770,691.5C 765.601,689.384 761.434,686.884 757.5,684C 763.556,674.72 769.222,665.22 774.5,655.5 Z"/></g>
<g><path style="opacity:1" fill="#040404" d="M 323.5,667.5 C 341.075,666.699 353.242,674.365 360,690.5C 360.333,693.833 360.667,697.167 361,700.5C 362.955,699.547 364.622,698.213 366,696.5C 369.896,700.725 373.396,705.225 376.5,710C 354.299,729.529 331.465,748.362 308,766.5C 303.936,762.049 300.103,757.383 296.5,752.5C 303.995,745.842 311.662,739.342 319.5,733C 300.861,726.996 292.695,714.163 295,694.5C 300.184,680.813 309.684,671.813 323.5,667.5 Z"/></g>
<g><path style="opacity:1" fill="#050505" d="M 738.5,675.5 C 741.448,675.223 744.281,675.556 747,676.5C 747.977,681.793 748.477,687.126 748.5,692.5C 740.14,691.598 733.64,694.598 729,701.5C 728.333,704.5 728.333,707.5 729,710.5C 740.01,722.176 751.677,733.176 764,743.5C 770.667,736.167 777.333,728.833 784,721.5C 787.549,725.35 791.383,728.85 795.5,732C 784.833,743.667 774.167,755.333 763.5,767C 762.5,767.667 761.5,767.667 760.5,767C 750.798,757.63 740.798,748.63 730.5,740C 724.301,734.136 718.468,727.969 713,721.5C 708.087,712.301 708.42,703.301 714,694.5C 720.064,685.248 728.231,678.915 738.5,675.5 Z"/></g>
<g><path style="opacity:1" fill="#fbfbfb" d="M 325.5,686.5 C 342.66,685.82 349.494,693.82 346,710.5C 340.115,719.573 331.948,722.739 321.5,720C 312.286,713.772 310.119,705.606 315,695.5C 318.103,691.886 321.603,688.886 325.5,686.5 Z"/></g>
<g><path style="opacity:1" fill="#050505" d="M 376.5,721.5 C 399.249,720.786 414.416,731.119 422,752.5C 423.205,772.26 414.372,785.093 395.5,791C 381.755,792.974 370.255,788.808 361,778.5C 351.392,765.086 351.058,751.419 360,737.5C 361.113,735.671 362.613,734.837 364.5,735C 377.333,743.833 390.167,752.667 403,761.5C 406.197,753.042 404.031,746.209 396.5,741C 391.093,737.315 385.093,735.815 378.5,736.5C 377.915,731.485 377.248,726.485 376.5,721.5 Z"/></g>
<g><path style="opacity:1" fill="#050505" d="M 691.5,721.5 C 695.767,721.203 699.934,721.536 704,722.5C 704.748,727.481 705.248,732.481 705.5,737.5C 691.624,737.023 679.79,741.689 670,751.5C 665.819,758.802 667.819,763.136 676,764.5C 685.602,762.122 695.102,759.288 704.5,756C 718.196,752.764 727.696,757.597 733,770.5C 735.233,780.069 733.233,788.736 727,796.5C 715.584,808.124 701.751,814.791 685.5,816.5C 685.223,811.114 684.556,805.781 683.5,800.5C 696.583,800.043 707.083,794.709 715,784.5C 716.622,775.21 712.789,771.71 703.5,774C 694.585,777.293 685.585,780.293 676.5,783C 662.661,784.826 653.828,778.993 650,765.5C 648.735,757.292 650.735,749.958 656,743.5C 665.945,732.953 677.778,725.619 691.5,721.5 Z"/></g>
<g><path style="opacity:1" fill="#f5f5f5" d="M 370.5,753.5 C 379.784,758.814 388.784,764.647 397.5,771C 387.578,779.012 378.745,777.846 371,767.5C 369.298,762.841 369.131,758.175 370.5,753.5 Z"/></g>
<g><path style="opacity:1" fill="#040404" d="M 451.5,758.5 C 458.41,760.246 465.41,761.579 472.5,762.5C 474.002,782.52 475.835,802.52 478,822.5C 488.041,805.584 498.208,788.75 508.5,772C 515.487,772.628 522.487,773.461 529.5,774.5C 532.594,804.156 535.594,833.823 538.5,863.5C 532.174,862.168 525.841,860.835 519.5,859.5C 516.872,838.888 514.705,818.222 513,797.5C 502.123,814.751 491.623,832.251 481.5,850C 475.099,849.888 468.766,849.055 462.5,847.5C 461.029,826.794 459.029,806.127 456.5,785.5C 446.041,802.918 435.707,820.418 425.5,838C 418.994,838.194 412.661,837.194 406.5,835C 421.385,809.39 436.385,783.89 451.5,758.5 Z"/></g>
<g><path style="opacity:1" fill="#090909" d="M 600.5,762.5 C 614.042,763.244 618.208,769.911 613,782.5C 604.752,788.753 598.086,787.419 593,778.5C 591.505,771.162 594.005,765.828 600.5,762.5 Z"/></g>
</svg>
